<?xml version="1.0" encoding="utf-8"?>
<!-- Generator: Adobe Illustrator 24.1.0, SVG Export Plug-In . SVG Version: 6.00 Build 0)  -->
<svg version="1.1" id="Capa_1" xmlns="http://www.w3.org/2000/svg" xmlns:xlink="http://www.w3.org/1999/xlink" x="0px" y="0px"
	 viewBox="0 0 51 51" style="enable-background:new 0 0 51 51;" xml:space="preserve">
<style type="text/css">
	.st0{fill:#F2F7F2;}
</style>
<path class="st0" d="M30.3,25.5c0,2.6-2.1,4.8-4.8,4.8s-4.8-2.1-4.8-4.8s2.1-4.8,4.8-4.8C28.1,20.7,30.3,22.9,30.3,25.5z"/>
<path class="st0" d="M36.7,17c-0.5-1.2-1.5-2.2-2.7-2.7c-0.9-0.3-1.8-0.5-2.7-0.5c-1.5-0.1-2-0.1-5.8-0.1s-4.3,0-5.8,0.1
	c-0.9,0-1.8,0.2-2.7,0.5c-1.3,0.5-2.3,1.4-2.7,2.7c-0.3,0.9-0.5,1.8-0.5,2.7c-0.1,1.5-0.1,2-0.1,5.8s0,4.3,0.1,5.8
	c0,0.9,0.2,1.8,0.5,2.7c0.5,1.3,1.4,2.3,2.7,2.7c0.9,0.3,1.8,0.5,2.7,0.5c1.5,0.1,2,0.1,5.8,0.1s4.3,0,5.8-0.1
	c0.9,0,1.8-0.2,2.7-0.5c1.3-0.5,2.3-1.4,2.7-2.7c0.3-0.9,0.5-1.8,0.5-2.7c0.1-1.5,0.1-2,0.1-5.8s0-4.3-0.1-5.8
	C37.2,18.8,37,17.9,36.7,17L36.7,17z M25.5,32.9c-4.1,0-7.4-3.3-7.4-7.4s3.3-7.4,7.4-7.4s7.4,3.3,7.4,7.4v0
	C32.9,29.6,29.6,32.9,25.5,32.9z M33.2,19.6c-1,0-1.7-0.8-1.7-1.7c0-1,0.8-1.7,1.7-1.7c1,0,1.7,0.8,1.7,1.7c0,0,0,0,0,0
	C34.9,18.8,34.1,19.6,33.2,19.6C33.2,19.6,33.2,19.6,33.2,19.6z"/>
<path class="st0" d="M25.5,0.5c-13.8,0-25,11.2-25,25s11.2,25,25,25s25-11.2,25-25S39.3,0.5,25.5,0.5z M39.8,31.4
	c0,1.2-0.2,2.4-0.7,3.5c-0.7,1.9-2.3,3.5-4.2,4.2c-1.1,0.4-2.3,0.6-3.5,0.7c-1.5,0.1-2,0.1-5.9,0.1s-4.4,0-5.9-0.1
	c-1.2,0-2.4-0.2-3.5-0.7c-1.9-0.7-3.5-2.3-4.2-4.2c-0.4-1.1-0.6-2.3-0.7-3.5c-0.1-1.5-0.1-2-0.1-5.9s0-4.4,0.1-5.9
	c0-1.2,0.2-2.4,0.7-3.5c0.7-1.9,2.3-3.5,4.2-4.2c1.1-0.4,2.3-0.6,3.5-0.7c1.5-0.1,2-0.1,5.9-0.1s4.4,0,5.9,0.1
	c1.2,0,2.4,0.2,3.5,0.7c1.9,0.7,3.5,2.3,4.2,4.2c0.4,1.1,0.6,2.3,0.7,3.5c0.1,1.5,0.1,2,0.1,5.9S39.9,29.9,39.8,31.4z"/>
</svg>
